{"title":"Sinais de Fogo (Luis Filipe Rocha, 1995)","uid":7872505,"size":1462953926,"categoryP":"video","categoryS":"movies","magnet":"?xt=urn:btih:727a2a61781864e44f8b634aa1f4b36b23f57b6b&amp;dn=Sinais+de+Fogo+%28Luis+Filipe+Rocha%2C+1995%29&amp;tr=udp%3A%2F%2Ftracker.openbittorrent.com%3A80&amp;tr=udp%3A%2F%2Fopen.demonii.com%3A1337&amp;tr=udp%3A%2F%2Ftracker.coppersurfer.tk%3A6969&amp;tr=udp%3A%2F%2Fexodus.desync.com%3A6969","seeders":0,"leechers":3,"uploader":"Aaaameida","files":-1,"time":1354246994,"description":"Film set in the Portuguese seaside during the breakout of the Spanish Civil War 1936, showing various reactions of the vacationers.\n &lt;a href=&quot;\nhttp://www.imdb.com/title/tt0114452&quot; rel=&quot;nofollow&quot; target=&quot;_NEW&quot;&gt;\nhttp://www.imdb.com/title/tt0114452&lt;/a&gt;\n\n\n      Format : AVI\n      Format/Info : Audio Video Interleave\n      File size : 1.36 GiB\n      Duration : 1h 40mn\n      Overall bit rate : 1 950 Kbps\n      Writing application : VirtualDubMod 1.5.4.1 (build 2178/release)\n      Writing library : VirtualDubMod build 2178/release\n   Video #0\n      ID : 0\n      Format : MPEG-4 Visual\n      Format profile : AdvancedSimple@L5\n      Format settings, BVOP : No\n      Format settings, QPel : No\n      Format settings, GMC : No warppoints\n      Format settings, Matrix : Custom\n      Codec ID : XVID\n      Codec ID/Hint : XviD\n      Duration : 1h 40mn\n      Bit rate : 1 495 Kbps\n      Width : 720 pixels\n      Height : 448 pixels\n      Display aspect ratio : 1.607\n      Frame rate : 25.000 fps\n      Resolution : 24 bits\n      Colorimetry : 4:2:0\n      Scan type : Progressive\n      Bits/(Pixel*Frame) : 0.185\n      Stream size : 1.04 GiB (77%)\n      Writing library : XviD 1.2.1 (UTC 2008-12-04)\n   Audio #1\n      ID : 1\n      Format : AC-3\n      Format/Info : Audio Coding 3\n      Codec ID : 2000\n      Duration : 1h 39mn\n      Bit rate mode : Constant\n      Bit rate : 448 Kbps\n      Channel(s) : 6 channels\n      Channel positions : Front: L C R, Surround: L R, LFE\n      Sampling rate : 48.0 KHz\n      Stream size : 320 MiB (23%)\n      Alignment : Split accross interleaves\n      Interleave, duration : 96 ms (2.40 video frames)\n      Interleave, preload duration : 96 ms","torrent":{"xt":"urn:btih:727a2a61781864e44f8b634aa1f4b36b23f57b6b","amp;dn":"Sinais+de+Fogo+%28Luis+Filipe+Rocha%2C+1995%29","amp;tr":["udp%3A%2F%2Ftracker.openbittorrent.com%3A80","udp%3A%2F%2Fopen.demonii.com%3A1337","udp%3A%2F%2Ftracker.coppersurfer.tk%3A6969","udp%3A%2F%2Fexodus.desync.com%3A6969"],"infoHash":"727a2a61781864e44f8b634aa1f4b36b23f57b6b","infoHashBuffer":{"type":"Buffer","data":[114,122,42,97,120,24,100,228,79,139,99,74,161,244,179,107,35,245,123,107]},"announce":[],"urlList":[]}}